<mxfile host="app.diagrams.net" agent="Mozilla/5.0 (Windows NT 10.0; Win64; x64) AppleWebKit/537.36 (KHTML, like Gecko) Chrome/136.0.0.0 Safari/537.36" version="27.1.1">
  <diagram name="ページ1" id="S_kUJT9KA9FsG-NEApi9">
    <mxGraphModel dx="1277" dy="1060" grid="1" gridSize="10" guides="1" tooltips="1" connect="1" arrows="1" fold="1" page="1" pageScale="1" pageWidth="1169" pageHeight="827" math="0" shadow="0">
      <root>
        <mxCell id="0" />
        <mxCell id="1" parent="0" />
        <mxCell id="csjtqq58R8e39ZMjAbV3-31" value="" style="rounded=0;whiteSpace=wrap;html=1;" vertex="1" parent="1">
          <mxGeometry x="650" y="304" width="290" height="220" as="geometry" />
        </mxCell>
        <mxCell id="csjtqq58R8e39ZMjAbV3-20" value="" style="rounded=0;whiteSpace=wrap;html=1;" vertex="1" parent="1">
          <mxGeometry x="90" y="300" width="150" height="250" as="geometry" />
        </mxCell>
        <mxCell id="csjtqq58R8e39ZMjAbV3-1" value="&lt;div&gt;人間に備わる&lt;span style=&quot;background-color: transparent; color: light-dark(rgb(0, 0, 0), rgb(255, 255, 255));&quot;&gt;２つのOS&lt;/span&gt;&lt;/div&gt;&lt;div&gt;&lt;span style=&quot;background-color: transparent; color: light-dark(rgb(0, 0, 0), rgb(255, 255, 255));&quot;&gt;（イルカと否定神学）&lt;/span&gt;&lt;/div&gt;" style="text;html=1;align=center;verticalAlign=middle;whiteSpace=wrap;rounded=0;fillColor=#dae8fc;strokeColor=#6c8ebf;" vertex="1" parent="1">
          <mxGeometry x="120" y="40" width="160" height="40" as="geometry" />
        </mxCell>
        <mxCell id="csjtqq58R8e39ZMjAbV3-2" value="&lt;div&gt;OS1&lt;/div&gt;脳-コンテクスト" style="text;html=1;align=center;verticalAlign=middle;whiteSpace=wrap;rounded=0;fillColor=#d5e8d4;strokeColor=#82b366;" vertex="1" parent="1">
          <mxGeometry x="370" y="560" width="150" height="40" as="geometry" />
        </mxCell>
        <mxCell id="csjtqq58R8e39ZMjAbV3-3" value="&lt;div&gt;OS2&lt;/div&gt;心-自然言語" style="text;html=1;align=center;verticalAlign=middle;whiteSpace=wrap;rounded=0;fillColor=#d5e8d4;strokeColor=#82b366;" vertex="1" parent="1">
          <mxGeometry x="600" y="560" width="150" height="40" as="geometry" />
        </mxCell>
        <mxCell id="csjtqq58R8e39ZMjAbV3-4" value="" style="endArrow=none;dashed=1;html=1;dashPattern=1 3;strokeWidth=2;rounded=0;" edge="1" parent="1">
          <mxGeometry width="50" height="50" relative="1" as="geometry">
            <mxPoint x="160" y="240" as="sourcePoint" />
            <mxPoint x="950" y="240" as="targetPoint" />
          </mxGeometry>
        </mxCell>
        <mxCell id="csjtqq58R8e39ZMjAbV3-5" value="外界&lt;div&gt;他者を含む&lt;/div&gt;" style="text;html=1;align=center;verticalAlign=middle;whiteSpace=wrap;rounded=0;" vertex="1" parent="1">
          <mxGeometry x="200" y="200" width="110" height="30" as="geometry" />
        </mxCell>
        <mxCell id="csjtqq58R8e39ZMjAbV3-6" value="" style="endArrow=none;dashed=1;html=1;dashPattern=1 3;strokeWidth=2;rounded=0;" edge="1" parent="1">
          <mxGeometry width="50" height="50" relative="1" as="geometry">
            <mxPoint x="560" y="600" as="sourcePoint" />
            <mxPoint x="560" y="240" as="targetPoint" />
          </mxGeometry>
        </mxCell>
        <mxCell id="csjtqq58R8e39ZMjAbV3-7" value="自身" style="text;html=1;align=center;verticalAlign=middle;whiteSpace=wrap;rounded=0;" vertex="1" parent="1">
          <mxGeometry x="200" y="250" width="110" height="30" as="geometry" />
        </mxCell>
        <mxCell id="csjtqq58R8e39ZMjAbV3-8" value="Out" style="rounded=0;whiteSpace=wrap;html=1;" vertex="1" parent="1">
          <mxGeometry x="460" y="230" width="40" height="30" as="geometry" />
        </mxCell>
        <mxCell id="csjtqq58R8e39ZMjAbV3-9" value="In" style="rounded=0;whiteSpace=wrap;html=1;" vertex="1" parent="1">
          <mxGeometry x="640" y="230" width="40" height="30" as="geometry" />
        </mxCell>
        <mxCell id="csjtqq58R8e39ZMjAbV3-10" value="コンテクスト&lt;div&gt;L0&lt;/div&gt;" style="rounded=1;whiteSpace=wrap;html=1;" vertex="1" parent="1">
          <mxGeometry x="320" y="320" width="120" height="60" as="geometry" />
        </mxCell>
        <mxCell id="csjtqq58R8e39ZMjAbV3-11" value="コンテクスト&lt;div&gt;L1&lt;/div&gt;" style="rounded=1;whiteSpace=wrap;html=1;" vertex="1" parent="1">
          <mxGeometry x="320" y="380" width="120" height="60" as="geometry" />
        </mxCell>
        <mxCell id="csjtqq58R8e39ZMjAbV3-12" value="コンテクスト&lt;div&gt;L2&lt;/div&gt;" style="rounded=1;whiteSpace=wrap;html=1;" vertex="1" parent="1">
          <mxGeometry x="320" y="440" width="120" height="60" as="geometry" />
        </mxCell>
        <mxCell id="csjtqq58R8e39ZMjAbV3-13" value="ゼロ学習" style="rounded=1;whiteSpace=wrap;html=1;" vertex="1" parent="1">
          <mxGeometry x="110" y="340" width="100" height="40" as="geometry" />
        </mxCell>
        <mxCell id="csjtqq58R8e39ZMjAbV3-14" value="学習Ⅱ" style="rounded=1;whiteSpace=wrap;html=1;" vertex="1" parent="1">
          <mxGeometry x="110" y="420" width="100" height="40" as="geometry" />
        </mxCell>
        <mxCell id="csjtqq58R8e39ZMjAbV3-15" value="学習Ⅲ" style="rounded=1;whiteSpace=wrap;html=1;" vertex="1" parent="1">
          <mxGeometry x="110" y="460" width="100" height="40" as="geometry" />
        </mxCell>
        <mxCell id="csjtqq58R8e39ZMjAbV3-16" value="学習Ⅰ" style="rounded=1;whiteSpace=wrap;html=1;" vertex="1" parent="1">
          <mxGeometry x="110" y="380" width="100" height="40" as="geometry" />
        </mxCell>
        <mxCell id="csjtqq58R8e39ZMjAbV3-17" value="" style="endArrow=classic;html=1;rounded=0;exitX=0.5;exitY=1;exitDx=0;exitDy=0;entryX=0.5;entryY=0;entryDx=0;entryDy=0;" edge="1" parent="1" source="csjtqq58R8e39ZMjAbV3-18" target="csjtqq58R8e39ZMjAbV3-10">
          <mxGeometry width="50" height="50" relative="1" as="geometry">
            <mxPoint x="690" y="350" as="sourcePoint" />
            <mxPoint x="740" y="300" as="targetPoint" />
          </mxGeometry>
        </mxCell>
        <mxCell id="csjtqq58R8e39ZMjAbV3-18" value="In" style="rounded=0;whiteSpace=wrap;html=1;" vertex="1" parent="1">
          <mxGeometry x="370" y="230" width="40" height="30" as="geometry" />
        </mxCell>
        <mxCell id="csjtqq58R8e39ZMjAbV3-19" value="" style="endArrow=classic;html=1;rounded=0;exitX=0;exitY=0.5;exitDx=0;exitDy=0;entryX=1;entryY=0.5;entryDx=0;entryDy=0;" edge="1" parent="1" source="csjtqq58R8e39ZMjAbV3-10" target="csjtqq58R8e39ZMjAbV3-20">
          <mxGeometry width="50" height="50" relative="1" as="geometry">
            <mxPoint x="500" y="380" as="sourcePoint" />
            <mxPoint x="230" y="340" as="targetPoint" />
          </mxGeometry>
        </mxCell>
        <mxCell id="csjtqq58R8e39ZMjAbV3-21" value="学習システム" style="text;html=1;align=center;verticalAlign=middle;whiteSpace=wrap;rounded=0;" vertex="1" parent="1">
          <mxGeometry x="110" y="300" width="100" height="30" as="geometry" />
        </mxCell>
        <mxCell id="csjtqq58R8e39ZMjAbV3-22" value="" style="endArrow=classic;html=1;rounded=0;entryX=1;entryY=0.5;entryDx=0;entryDy=0;" edge="1" parent="1" source="csjtqq58R8e39ZMjAbV3-11" target="csjtqq58R8e39ZMjAbV3-20">
          <mxGeometry width="50" height="50" relative="1" as="geometry">
            <mxPoint x="390" y="540" as="sourcePoint" />
            <mxPoint x="310" y="600" as="targetPoint" />
          </mxGeometry>
        </mxCell>
        <mxCell id="csjtqq58R8e39ZMjAbV3-23" value="" style="endArrow=classic;html=1;rounded=0;exitX=0;exitY=0.5;exitDx=0;exitDy=0;entryX=1;entryY=0.5;entryDx=0;entryDy=0;" edge="1" parent="1" source="csjtqq58R8e39ZMjAbV3-12" target="csjtqq58R8e39ZMjAbV3-20">
          <mxGeometry width="50" height="50" relative="1" as="geometry">
            <mxPoint x="320" y="480" as="sourcePoint" />
            <mxPoint x="240" y="410" as="targetPoint" />
          </mxGeometry>
        </mxCell>
        <mxCell id="csjtqq58R8e39ZMjAbV3-24" value="" style="endArrow=classic;html=1;rounded=0;exitX=0.75;exitY=0;exitDx=0;exitDy=0;entryX=0.5;entryY=1;entryDx=0;entryDy=0;" edge="1" parent="1" source="csjtqq58R8e39ZMjAbV3-10" target="csjtqq58R8e39ZMjAbV3-8">
          <mxGeometry width="50" height="50" relative="1" as="geometry">
            <mxPoint x="510" y="330" as="sourcePoint" />
            <mxPoint x="500" y="390" as="targetPoint" />
          </mxGeometry>
        </mxCell>
        <mxCell id="csjtqq58R8e39ZMjAbV3-25" value="Out" style="rounded=0;whiteSpace=wrap;html=1;" vertex="1" parent="1">
          <mxGeometry x="710" y="230" width="40" height="30" as="geometry" />
        </mxCell>
        <mxCell id="csjtqq58R8e39ZMjAbV3-27" value="現象の認識" style="rounded=1;whiteSpace=wrap;html=1;" vertex="1" parent="1">
          <mxGeometry x="680" y="340" width="120" height="50" as="geometry" />
        </mxCell>
        <mxCell id="csjtqq58R8e39ZMjAbV3-29" value="コンテクスト&lt;div&gt;レイヤー&lt;/div&gt;" style="text;html=1;align=center;verticalAlign=middle;whiteSpace=wrap;rounded=0;" vertex="1" parent="1">
          <mxGeometry x="330" y="510" width="100" height="30" as="geometry" />
        </mxCell>
        <mxCell id="csjtqq58R8e39ZMjAbV3-30" value="" style="endArrow=classic;html=1;rounded=0;exitX=0.5;exitY=1;exitDx=0;exitDy=0;" edge="1" parent="1" source="csjtqq58R8e39ZMjAbV3-9">
          <mxGeometry width="50" height="50" relative="1" as="geometry">
            <mxPoint x="660" y="250" as="sourcePoint" />
            <mxPoint x="686" y="300" as="targetPoint" />
          </mxGeometry>
        </mxCell>
        <mxCell id="csjtqq58R8e39ZMjAbV3-34" value="" style="endArrow=classic;html=1;rounded=0;exitX=0.5;exitY=0;exitDx=0;exitDy=0;entryX=0.5;entryY=1;entryDx=0;entryDy=0;" edge="1" parent="1" source="csjtqq58R8e39ZMjAbV3-31" target="csjtqq58R8e39ZMjAbV3-25">
          <mxGeometry width="50" height="50" relative="1" as="geometry">
            <mxPoint x="810" y="270" as="sourcePoint" />
            <mxPoint x="840" y="310" as="targetPoint" />
          </mxGeometry>
        </mxCell>
        <mxCell id="csjtqq58R8e39ZMjAbV3-37" value="" style="endArrow=classic;startArrow=classic;html=1;rounded=0;exitX=1;exitY=0.5;exitDx=0;exitDy=0;entryX=0;entryY=0.5;entryDx=0;entryDy=0;" edge="1" parent="1" source="csjtqq58R8e39ZMjAbV3-10" target="csjtqq58R8e39ZMjAbV3-31">
          <mxGeometry width="50" height="50" relative="1" as="geometry">
            <mxPoint x="560" y="570" as="sourcePoint" />
            <mxPoint x="610" y="520" as="targetPoint" />
          </mxGeometry>
        </mxCell>
        <mxCell id="csjtqq58R8e39ZMjAbV3-39" value="" style="endArrow=classic;startArrow=classic;html=1;rounded=0;exitX=1;exitY=0.5;exitDx=0;exitDy=0;entryX=0;entryY=0.5;entryDx=0;entryDy=0;" edge="1" parent="1" source="csjtqq58R8e39ZMjAbV3-11" target="csjtqq58R8e39ZMjAbV3-31">
          <mxGeometry width="50" height="50" relative="1" as="geometry">
            <mxPoint x="440" y="400" as="sourcePoint" />
            <mxPoint x="646" y="458" as="targetPoint" />
          </mxGeometry>
        </mxCell>
        <mxCell id="csjtqq58R8e39ZMjAbV3-40" value="" style="endArrow=classic;startArrow=classic;html=1;rounded=0;exitX=1;exitY=0.5;exitDx=0;exitDy=0;entryX=0;entryY=0.5;entryDx=0;entryDy=0;" edge="1" parent="1" source="csjtqq58R8e39ZMjAbV3-12" target="csjtqq58R8e39ZMjAbV3-31">
          <mxGeometry width="50" height="50" relative="1" as="geometry">
            <mxPoint x="440" y="460" as="sourcePoint" />
            <mxPoint x="650" y="524" as="targetPoint" />
          </mxGeometry>
        </mxCell>
        <mxCell id="csjtqq58R8e39ZMjAbV3-41" value="学習システム" style="text;html=1;align=center;verticalAlign=middle;whiteSpace=wrap;rounded=0;" vertex="1" parent="1">
          <mxGeometry x="730" y="304" width="100" height="30" as="geometry" />
        </mxCell>
        <mxCell id="csjtqq58R8e39ZMjAbV3-42" value="現象の認識" style="rounded=1;whiteSpace=wrap;html=1;" vertex="1" parent="1">
          <mxGeometry x="680" y="410" width="120" height="50" as="geometry" />
        </mxCell>
        <mxCell id="csjtqq58R8e39ZMjAbV3-43" value="&lt;div&gt;肯定的作用&lt;/div&gt;逆説的作用" style="text;html=1;align=center;verticalAlign=middle;whiteSpace=wrap;rounded=0;" vertex="1" parent="1">
          <mxGeometry x="500" y="320" width="100" height="50" as="geometry" />
        </mxCell>
        <mxCell id="csjtqq58R8e39ZMjAbV3-44" value="他者Ｂ" style="rounded=1;whiteSpace=wrap;html=1;" vertex="1" parent="1">
          <mxGeometry x="420" y="120" width="120" height="60" as="geometry" />
        </mxCell>
        <mxCell id="csjtqq58R8e39ZMjAbV3-45" value="他者Ｃ" style="rounded=1;whiteSpace=wrap;html=1;" vertex="1" parent="1">
          <mxGeometry x="600" y="120" width="120" height="60" as="geometry" />
        </mxCell>
      </root>
    </mxGraphModel>
  </diagram>
</mxfile>
